<svg xmlns="http://www.w3.org/2000/svg" viewBox="0 0 256 256" role="img" aria-label="MyClaw.One">
  <defs>
    <linearGradient id="mc-bg" x1="0" y1="0" x2="1" y2="1">
      <stop offset="0%" stop-color="#6366f1"/>
      <stop offset="100%" stop-color="#4f46e5"/>
    </linearGradient>
  </defs>
  <rect width="256" height="256" rx="56" fill="url(#mc-bg)"/>
  <g fill="#ffffff">
    <path d="M128 190 C 98 190, 76 168, 76 140 C 76 118, 98 98, 128 98 C 158 98, 180 118, 180 140 C 180 168, 158 190, 128 190 Z"/>
    <ellipse cx="82" cy="88" rx="15" ry="22" transform="rotate(-18 82 88)"/>
    <ellipse cx="108" cy="64" rx="14" ry="21" transform="rotate(-6 108 64)"/>
    <ellipse cx="148" cy="64" rx="14" ry="21" transform="rotate(6 148 64)"/>
    <ellipse cx="174" cy="88" rx="15" ry="22" transform="rotate(18 174 88)"/>
  </g>
</svg>
